<svg xmlns="http://www.w3.org/2000/svg" width="30" height="795" viewBox="0 0 30 795">
  <g fill="none" stroke="#222" stroke-width="1.8" stroke-linecap="round" stroke-linejoin="round">
    <!-- Navigation -->
    <g transform="translate(0 0)">
      <rect x="4" y="5" width="22" height="20" rx="1.5"/>
      <path d="M10 5v20M14 10h8M14 15h8M14 20h6"/>
    </g>

    <!-- Search -->
    <g transform="translate(0 45)">
      <circle cx="12.5" cy="12.5" r="7"/>
      <path d="m17.5 17.5 7 7"/>
    </g>

    <!-- Edit -->
    <g transform="translate(0 90)">
      <path d="m7 22 1.5-5.5L20 5l5 5-11.5 11.5L8 23zM17.5 7.5l5 5M8.5 16.5l5 5"/>
      <path d="M6 25h18"/>
    </g>

    <!-- Create page -->
    <g transform="translate(0 135)">
      <path d="M6 4h12l6 6v16H6zM18 4v6h6"/>
      <path d="M11 17h8M15 13v8"/>
    </g>

    <!-- Source -->
    <g transform="translate(0 180)">
      <path d="m11 8-6 7 6 7M19 8l6 7-6 7M17 5l-4 20"/>
    </g>

    <!-- Show page -->
    <g transform="translate(0 225)">
      <path d="M5 4h14l6 6v16H5zM19 4v6h6"/>
      <path d="M9 18s2.2-3.5 6-3.5 6 3.5 6 3.5-2.2 3.5-6 3.5S9 18 9 18z"/>
      <circle cx="15" cy="18" r="1.5"/>
    </g>

    <!-- Recent changes -->
    <g transform="translate(0 270)">
      <path d="M7 8H3V4M4.5 7a11 11 0 1 1-1 13"/>
      <path d="M15 9v7l4 2"/>
    </g>

    <!-- Media -->
    <g transform="translate(0 315)">
      <rect x="3" y="5" width="24" height="20" rx="1.5"/>
      <circle cx="10" cy="11" r="2.2"/>
      <path d="m5 22 6-6 4 4 4-5 6 7"/>
    </g>

    <!-- Index -->
    <g transform="translate(0 360)">
      <circle cx="15" cy="15" r="11"/>
      <path d="m19.5 10.5-2.8 6.2-6.2 2.8 2.8-6.2z"/>
      <circle cx="15" cy="15" r="1"/>
    </g>

    <!-- Back to top -->
    <g transform="translate(0 405)">
      <circle cx="15" cy="15" r="11"/>
      <path d="m9 17 6-6 6 6M15 11v9"/>
    </g>

    <!-- Backlinks -->
    <g transform="translate(0 450)">
      <path d="m11 9-6 6 6 6M6 15h10c5 0 8 3 8 8"/>
    </g>

    <!-- Revisions -->
    <g transform="translate(0 495)">
      <path d="M5 7V4h16v13h-3M8 7h16v15H8z"/>
      <path d="M12 12h8M12 16h6"/>
      <path d="M12 25h10"/>
    </g>

    <!-- Profile -->
    <g transform="translate(0 540)">
      <circle cx="15" cy="10" r="5"/>
      <path d="M6 25c.8-5.2 4.2-8 9-8s8.2 2.8 9 8z"/>
    </g>

    <!-- Register -->
    <g transform="translate(0 585)">
      <circle cx="11" cy="10" r="4.5"/>
      <path d="M3 24c.7-4.7 3.7-7 8-7 2.3 0 4.2.7 5.6 2"/>
      <path d="M22 15v10M17 20h10"/>
    </g>

    <!-- Log in -->
    <g transform="translate(0 630)">
      <path d="M17 5h8v20h-8M4 15h15M14 10l5 5-5 5"/>
    </g>

    <!-- Log out -->
    <g transform="translate(0 675)">
      <path d="M13 5H5v20h8M26 15H11M16 10l-5 5 5 5"/>
    </g>

    <!-- Administration -->
    <g transform="translate(0 720)">
      <path d="m12.5 3 .7 3a9 9 0 0 1 3.6 0l.7-3 4 1.7-1.6 2.7a10 10 0 0 1 2.6 2.6l2.8-1.5 1.7 4-3 .7a9 9 0 0 1 0 3.6l3 .7-1.7 4-2.8-1.5a10 10 0 0 1-2.6 2.6l1.6 2.7-4 1.7-.7-3a9 9 0 0 1-3.6 0l-.7 3-4-1.7 1.6-2.7A10 10 0 0 1 7.5 20l-2.8 1.5-1.7-4 3-.7a9 9 0 0 1 0-3.6l-3-.7 1.7-4L7.5 10a10 10 0 0 1 2.6-2.6L8.5 4.7z"/>
      <circle cx="15" cy="15" r="4"/>
    </g>

    <!-- Export PDF -->
    <g transform="translate(0 765)">
      <path d="M5 3h14l6 6v18H5zM19 3v6h6"/>
      <path d="M8 15v7M8 15h3a2 2 0 0 1 0 4H8M14 15v7h2a3.5 3.5 0 0 0 0-7zM21 22v-7h5M21 18h4"/>
    </g>
  </g>
</svg>
