<svg xmlns="http://www.w3.org/2000/svg" width="30" height="795" viewBox="0 0 30 795">
  <g fill="none" stroke="#444" stroke-width="1.8" stroke-linecap="round" stroke-linejoin="round">
    <!-- Navigation -->
    <g transform="translate(0 0)" stroke-linecap="square">
      <path d="M4 6h22M4 12h22M4 18h22M4 24h22"/>
    </g>

    <!-- Search -->
    <g transform="translate(0 45)">
      <circle cx="12" cy="12" r="7.5"/>
      <path d="m17.5 17.5 7.5 7.5"/>
    </g>

    <!-- Edit -->
    <g transform="translate(0 90)">
      <path d="m5.5 24.5 2-7L20 5a3 3 0 0 1 4.2 0l.8.8a3 3 0 0 1 0 4.2L12.5 22.5z"/>
      <path d="m8 17 5 5M19 6l5 5M5.5 24.5l7-2"/>
    </g>

    <!-- Create page -->
    <g transform="translate(0 135)">
      <path d="M6 4h12l6 6v16H6zM18 4v6h6"/>
      <path d="M11 17h8M15 13v8"/>
    </g>

    <!-- Source -->
    <g transform="translate(0 180)">
      <path d="m11 8-6 7 6 7M19 8l6 7-6 7M17 5l-4 20"/>
    </g>

    <!-- Show page -->
    <g transform="translate(0 225)">
      <path d="M5 4h14l6 6v16H5zM19 4v6h6"/>
      <path d="M9 18s2.2-3.5 6-3.5 6 3.5 6 3.5-2.2 3.5-6 3.5S9 18 9 18z"/>
      <circle cx="15" cy="18" r="1.5"/>
    </g>

    <!-- Recent changes -->
    <g transform="translate(0 270)">
      <path d="M7 8H3V4M4.5 7a11 11 0 1 1-1 13"/>
      <path d="M15 9v7l4 2"/>
    </g>

    <!-- Media -->
    <g transform="translate(0 315)">
      <rect x="3" y="5" width="24" height="20" rx="1.5"/>
      <circle cx="10" cy="11" r="2.2"/>
      <path d="m5 22 6-6 4 4 4-5 6 7"/>
    </g>

    <!-- Index -->
    <g transform="translate(0 360)">
      <circle cx="15" cy="15" r="11.5"/>
      <path d="m19.5 10.5-2.7 6.3-6.3 2.7 2.7-6.3z"/>
      <circle cx="15" cy="15" r="1.2"/>
      <path d="M15 3.5v2M15 24.5v2M3.5 15h2M24.5 15h2" opacity=".35"/>
    </g>

    <!-- Back to top -->
    <g transform="translate(0 405)">
      <circle cx="15" cy="15" r="11.5"/>
      <path d="m9.5 18 5.5-5.5 5.5 5.5"/>
    </g>

    <!-- Backlinks -->
    <g transform="translate(0 450)">
      <path d="M12 9H9a6 6 0 0 0 0 12h3M18 9h3a6 6 0 0 1 0 12h-3M10 15h10"/>
    </g>

    <!-- Revisions -->
    <g transform="translate(0 495)">
      <path d="M7 5 3 9l4 4M4 9h13c6 0 10 3.5 10 9s-4 9-10 9H6"/>
    </g>

    <!-- Profile -->
    <g transform="translate(0 540)">
      <circle cx="15" cy="9" r="5.5"/>
      <path d="M4 25c.8-6.3 4.8-10 11-10s10.2 3.7 11 10c-2.8 1.7-6.5 2.5-11 2.5S6.8 26.7 4 25z"/>
    </g>

    <!-- Register -->
    <g transform="translate(0 585)">
      <circle cx="15" cy="9" r="5.5"/>
      <path d="M4 25c.8-6.3 4.8-10 11-10s10.2 3.7 11 10c-2.8 1.7-6.5 2.5-11 2.5S6.8 26.7 4 25z"/>
      <path d="M15 5.5v7M11.5 9h7"/>
    </g>

    <!-- Log in -->
    <g transform="translate(0 630)">
      <path d="M12 4h12v22H12M3 15h16M15 11l4 4-4 4"/>
    </g>

    <!-- Log out -->
    <g transform="translate(0 675)">
      <path d="M12 4h12v22H12M19 15H3M7 11l-4 4 4 4"/>
    </g>

    <!-- Administration -->
    <g transform="translate(0 720)">
      <path d="m12 2.8.8 3a10 10 0 0 1 4.4 0l.8-3 4.1 1.7-1.6 2.7a10 10 0 0 1 2.3 2.3l2.7-1.6 1.7 4.1-3 .8a10 10 0 0 1 0 4.4l3 .8-1.7 4.1-2.7-1.6a10 10 0 0 1-2.3 2.3l1.6 2.7-4.1 1.7-.8-3a10 10 0 0 1-4.4 0l-.8 3-4.1-1.7 1.6-2.7a10 10 0 0 1-2.3-2.3l-2.7 1.6L2.8 18l3-.8a10 10 0 0 1 0-4.4l-3-.8 1.7-4.1 2.7 1.6a10 10 0 0 1 2.3-2.3L7.9 4.5z"/>
      <circle cx="15" cy="15" r="5"/>
    </g>

    <!-- Export PDF -->
    <g transform="translate(0 765)">
      <path d="M5 3h14l6 6v18H5zM19 3v6h6"/>
      <path d="M8 15v7M8 15h3a2 2 0 0 1 0 4H8M14 15v7h2a3.5 3.5 0 0 0 0-7zM21 22v-7h5M21 18h4"/>
    </g>
  </g>
</svg>
